<svg height="512" viewBox="0 0 512 512" width="512" xmlns="http://www.w3.org/2000/svg"><g><g><path d="m496 76v268h-480v-268a19.994 19.994 0 0 1 20-20h440a19.994 19.994 0 0 1 20 20z" fill="#5aaae7"/><path d="m496 344v28a19.994 19.994 0 0 1 -20 20h-440a19.994 19.994 0 0 1 -20-20v-28z" fill="#d8d7da"/><path d="m320 440h-128l8-48h112z" fill="#787680"/><path d="m152 440h208v24h-208z" fill="#d8d7da"/></g><g><path d="m476 48h-440a28.031 28.031 0 0 0 -28 28v296a28.031 28.031 0 0 0 28 28h154.56l-5.34 32h-33.22a8 8 0 0 0 -8 8v16h-32a8 8 0 0 0 0 16h288a8 8 0 0 0 0-16h-32v-16a8 8 0 0 0 -8-8h-33.22l-5.34-32h154.56a28.031 28.031 0 0 0 28-28v-296a28.031 28.031 0 0 0 -28-28zm-124 400v8h-192v-8zm-150.56-16 5.34-32h98.44l5.34 32zm286.56-60a12.01 12.01 0 0 1 -12 12h-440a12.01 12.01 0 0 1 -12-12v-20h464zm0-36h-464v-260a12.01 12.01 0 0 1 12-12h440a12.01 12.01 0 0 1 12 12z"/><path d="m96 360h-48a8 8 0 0 0 0 16h48a8 8 0 0 0 0-16z"/><path d="m128 360h-8a8 8 0 0 0 0 16h8a8 8 0 0 0 0-16z"/><path d="m56 200h48a8 8 0 0 0 8-8v-80a8 8 0 0 0 -8-8h-48a8 8 0 0 0 -8 8v80a8 8 0 0 0 8 8zm8-80h32v64h-32z"/><path d="m136 120h8v72a8 8 0 0 0 16 0v-80a8 8 0 0 0 -8-8h-16a8 8 0 0 0 0 16z"/><path d="m184 200h48a8 8 0 0 0 8-8v-80a8 8 0 0 0 -8-8h-48a8 8 0 0 0 -8 8v80a8 8 0 0 0 8 8zm8-80h32v64h-32z"/><path d="m312 200h48a8 8 0 0 0 8-8v-80a8 8 0 0 0 -8-8h-48a8 8 0 0 0 -8 8v80a8 8 0 0 0 8 8zm8-80h32v64h-32z"/><path d="m264 120h8v72a8 8 0 0 0 16 0v-80a8 8 0 0 0 -8-8h-16a8 8 0 0 0 0 16z"/><path d="m392 120h8v72a8 8 0 0 0 16 0v-80a8 8 0 0 0 -8-8h-16a8 8 0 0 0 0 16z"/><path d="m440 120h8v72a8 8 0 0 0 16 0v-80a8 8 0 0 0 -8-8h-16a8 8 0 0 0 0 16z"/><path d="m152 216h-48a8 8 0 0 0 -8 8v80a8 8 0 0 0 8 8h48a8 8 0 0 0 8-8v-80a8 8 0 0 0 -8-8zm-8 80h-32v-64h32z"/><path d="m184 232h8v72a8 8 0 0 0 16 0v-80a8 8 0 0 0 -8-8h-16a8 8 0 0 0 0 16z"/><path d="m280 216h-48a8 8 0 0 0 -8 8v80a8 8 0 0 0 8 8h48a8 8 0 0 0 8-8v-80a8 8 0 0 0 -8-8zm-8 80h-32v-64h32z"/><path d="m408 216h-48a8 8 0 0 0 -8 8v80a8 8 0 0 0 8 8h48a8 8 0 0 0 8-8v-80a8 8 0 0 0 -8-8zm-8 80h-32v-64h32z"/><path d="m312 232h8v72a8 8 0 0 0 16 0v-80a8 8 0 0 0 -8-8h-16a8 8 0 0 0 0 16z"/><path d="m56 232h8v72a8 8 0 0 0 16 0v-80a8 8 0 0 0 -8-8h-16a8 8 0 0 0 0 16z"/><path d="m440 232h8v72a8 8 0 0 0 16 0v-80a8 8 0 0 0 -8-8h-16a8 8 0 0 0 0 16z"/></g></g></svg>