<svg height="512" viewBox="0 0 512 512" width="512" xmlns="http://www.w3.org/2000/svg"><g><g><g><path d="m496 76v268h-480v-268a19.994 19.994 0 0 1 20-20h440a19.994 19.994 0 0 1 20 20z" fill="#5aaae7"/><path d="m496 344v28a19.994 19.994 0 0 1 -20 20h-440a19.994 19.994 0 0 1 -20-20v-28z" fill="#d8d7da"/><path d="m320 440h-128l8-48h112z" fill="#787680"/><path d="m152 440h208v24h-208z" fill="#d8d7da"/></g><rect fill="#1e81ce" height="208" rx="20" width="128" x="344" y="256"/><path d="m424 280h-32l-8-24h48z" fill="#787680"/></g><g><path d="m476 48h-440a28.031 28.031 0 0 0 -28 28v296a28.031 28.031 0 0 0 28 28h154.56l-5.34 32h-33.22a8 8 0 0 0 -8 8v24a8 8 0 0 0 8 8h208a7.871 7.871 0 0 0 1.38-.13c.86.08 1.74.13 2.62.13h88a28.031 28.031 0 0 0 28-28v-44.29a28.043 28.043 0 0 0 24-27.71v-296a28.031 28.031 0 0 0 -28-28zm-440 336a12.01 12.01 0 0 1 -12-12v-20h312v32zm300 16v32h-9.22l-5.34-32zm-25.44 32h-109.12l5.34-32h98.44zm-150.56 24v-8h176.29a27.807 27.807 0 0 0 2.42 8zm304-12a12.01 12.01 0 0 1 -12 12h-88a12.01 12.01 0 0 1 -12-12v-168a12.01 12.01 0 0 1 12-12h14.23l6.18 18.53a8 8 0 0 0 7.59 5.47h32a8 8 0 0 0 7.59-5.47l6.18-18.53h14.23a12.01 12.01 0 0 1 12 12zm-68.9-180h25.8l-2.67 8h-20.46zm92.9 108a12.014 12.014 0 0 1 -8 11.3v-31.3h8zm0-36h-8v-60a28.031 28.031 0 0 0 -28-28h-88a28.031 28.031 0 0 0 -28 28v60h-312v-260a12.01 12.01 0 0 1 12-12h440a12.01 12.01 0 0 1 12 12z"/><path d="m96 360h-48a8 8 0 0 0 0 16h48a8 8 0 0 0 0-16z"/><path d="m128 360h-8a8 8 0 0 0 0 16h8a8 8 0 0 0 0-16z"/></g></g></svg>