<svg height="512" viewBox="0 0 512 512" width="512" xmlns="http://www.w3.org/2000/svg"><g><g><path d="m496 108v268h-480v-268a19.994 19.994 0 0 1 20-20h440a19.994 19.994 0 0 1 20 20z" fill="#5aaae7"/><path d="m496 376v28a19.994 19.994 0 0 1 -20 20h-440a19.994 19.994 0 0 1 -20-20v-28z" fill="#d8d7da"/><path d="m320 472h-128l8-48h112z" fill="#787680"/><path d="m152 472h208v24h-208z" fill="#d8d7da"/><path d="m344 104a87.985 87.985 0 0 1 -48 78.4v33.6h-80v-33.6a88.006 88.006 0 1 1 128-78.4z" fill="#ffda44"/><path d="m200 216h112v24h-112z" fill="#d8d7da"/><path d="m216 240h80a0 0 0 0 1 0 0v28a20 20 0 0 1 -20 20h-40a20 20 0 0 1 -20-20v-28a0 0 0 0 1 0 0z" fill="#3e3d42"/><path d="m240 288h32a0 0 0 0 1 0 0v8a16 16 0 0 1 -16 16 16 16 0 0 1 -16-16v-8a0 0 0 0 1 0 0z" fill="#ffda44"/></g><g><path d="m476 80h-127.04a96.011 96.011 0 0 0 -185.92 0h-127.04a28.031 28.031 0 0 0 -28 28v296a28.031 28.031 0 0 0 28 28h154.56l-5.34 32h-33.22a8 8 0 0 0 -8 8v16h-32a8 8 0 0 0 0 16h288a8 8 0 0 0 0-16h-32v-16a8 8 0 0 0 -8-8h-33.22l-5.34-32h154.56a28.031 28.031 0 0 0 28-28v-296a28.031 28.031 0 0 0 -28-28zm-220-56a80.013 80.013 0 0 1 36.36 151.28 7.984 7.984 0 0 0 -4.36 7.12v25.6h-8v-80a8 8 0 0 0 -16 0v80h-16v-80a8 8 0 0 0 -16 0v80h-8v-25.6a7.984 7.984 0 0 0 -4.36-7.12 80.013 80.013 0 0 1 36.36-151.28zm-20 256a12.01 12.01 0 0 1 -12-12v-20h64v20a12.01 12.01 0 0 1 -12 12zm28 16a8 8 0 0 1 -16 0zm-56-64v-8h96v8zm144 248v8h-192v-8zm-150.56-16 5.34-32h98.44l5.34 32zm286.56-60a12.01 12.01 0 0 1 -12 12h-440a12.01 12.01 0 0 1 -12-12v-20h464zm0-36h-464v-260a12.01 12.01 0 0 1 12-12h124.34c-.22 2.64-.34 5.31-.34 8a95.6 95.6 0 0 0 48 83.15v20.85h-8a8 8 0 0 0 -8 8v24a8 8 0 0 0 8 8h8v20a28.043 28.043 0 0 0 24 27.71v.29a24 24 0 0 0 48 0v-.29a28.043 28.043 0 0 0 24-27.71v-20h8a8 8 0 0 0 8-8v-24a8 8 0 0 0 -8-8h-8v-20.85a95.6 95.6 0 0 0 48-83.15c0-2.69-.12-5.36-.34-8h124.34a12.01 12.01 0 0 1 12 12z"/><path d="m96 392h-48a8 8 0 0 0 0 16h48a8 8 0 0 0 0-16z"/><path d="m128 392h-8a8 8 0 0 0 0 16h8a8 8 0 0 0 0-16z"/><path d="m224 112h64a8 8 0 0 0 0-16h-64a8 8 0 0 0 0 16z"/></g></g></svg>