<svg height="512" viewBox="0 0 512 512" width="512" xmlns="http://www.w3.org/2000/svg"><g><g><g><path d="m496 112v316a19.994 19.994 0 0 1 -20 20h-440a19.994 19.994 0 0 1 -20-20v-316z" fill="#d8d7da"/><path d="m496 84v28h-480v-28a19.994 19.994 0 0 1 20-20h440a19.994 19.994 0 0 1 20 20z" fill="#5aaae7"/></g><path d="m48 144h96v248h-96z" fill="#ffda44"/><path d="m144 144h320v248h-320z" fill="#ffeb99"/></g><g><path d="m476 56h-440a28.031 28.031 0 0 0 -28 28v344a28.031 28.031 0 0 0 28 28h440a28.031 28.031 0 0 0 28-28v-344a28.031 28.031 0 0 0 -28-28zm12 372a12.01 12.01 0 0 1 -12 12h-440a12.01 12.01 0 0 1 -12-12v-308h464zm0-324h-464v-20a12.01 12.01 0 0 1 12-12h440a12.01 12.01 0 0 1 12 12z"/><path d="m40 96h8a8 8 0 0 0 0-16h-8a8 8 0 0 0 0 16z"/><path d="m72 96h8a8 8 0 0 0 0-16h-8a8 8 0 0 0 0 16z"/><path d="m104 96h8a8 8 0 0 0 0-16h-8a8 8 0 0 0 0 16z"/><path d="m440 416h-72a8 8 0 0 0 0 16h72a8 8 0 0 0 0-16z"/><path d="m472 416h-8a8 8 0 0 0 0 16h8a8 8 0 0 0 0-16z"/><path d="m464 136h-416a8 8 0 0 0 -8 8v248a8 8 0 0 0 8 8h416a8 8 0 0 0 8-8v-248a8 8 0 0 0 -8-8zm-328 248h-80v-232h80zm320 0h-304v-232h304z"/><path d="m72 192h48a8 8 0 0 0 0-16h-48a8 8 0 0 0 0 16z"/><path d="m192 192h48a8 8 0 0 0 0-16h-48a8 8 0 0 0 0 16z"/><path d="m120 208h-48a8 8 0 0 0 0 16h48a8 8 0 0 0 0-16z"/><path d="m120 240h-48a8 8 0 0 0 0 16h48a8 8 0 0 0 0-16z"/><path d="m120 272h-48a8 8 0 0 0 0 16h48a8 8 0 0 0 0-16z"/><path d="m120 304h-48a8 8 0 0 0 0 16h48a8 8 0 0 0 0-16z"/><path d="m120 336h-48a8 8 0 0 0 0 16h48a8 8 0 0 0 0-16z"/><path d="m264 192h8a8 8 0 0 0 0-16h-8a8 8 0 0 0 0 16z"/><path d="m296 280a8 8 0 0 0 -8-8h-48a8 8 0 0 0 0 16h48a8 8 0 0 0 8-8z"/><path d="m312 272a8 8 0 0 0 0 16h8a8 8 0 0 0 0-16z"/><path d="m200 216a8 8 0 0 0 8 8h112a8 8 0 0 0 0-16h-112a8 8 0 0 0 -8 8z"/><path d="m360 248a8 8 0 0 0 -8-8h-144a8 8 0 0 0 0 16h144a8 8 0 0 0 8-8z"/><path d="m344 224h8a8 8 0 0 0 0-16h-8a8 8 0 0 0 0 16z"/><path d="m264 312a8 8 0 0 0 8 8h112a8 8 0 0 0 0-16h-112a8 8 0 0 0 -8 8z"/><path d="m416 336h-144a8 8 0 0 0 0 16h144a8 8 0 0 0 0-16z"/><path d="m408 320h8a8 8 0 0 0 0-16h-8a8 8 0 0 0 0 16z"/></g></g></svg>