<svg height="512" viewBox="0 0 512 512" width="512" xmlns="http://www.w3.org/2000/svg"><g><g><path d="m16 376h480a0 0 0 0 1 0 0v28a20 20 0 0 1 -20 20h-440a20 20 0 0 1 -20-20v-28a0 0 0 0 1 0 0z" fill="#d8d7da"/><path d="m216 376h80v24h-80z" fill="#787680"/><path d="m343.29 88h92.71a19.994 19.994 0 0 1 20 20v268h-400v-268a19.994 19.994 0 0 1 20-20h92.71" fill="#3e3d42"/><path d="m350.66 112h81.34v240h-352v-240h81.34" fill="#5aaae7"/></g><g><path d="m496 368h-32v-260a28.031 28.031 0 0 0 -28-28h-360a28.031 28.031 0 0 0 -28 28v260h-32a8 8 0 0 0 -8 8v28a28.031 28.031 0 0 0 28 28h440a28.031 28.031 0 0 0 28-28v-28a8 8 0 0 0 -8-8zm-432-260a12.01 12.01 0 0 1 12-12h360a12.01 12.01 0 0 1 12 12v260h-384zm224 276v8h-64v-8zm200 20a12.01 12.01 0 0 1 -12 12h-440a12.01 12.01 0 0 1 -12-12v-20h184v16a8 8 0 0 0 8 8h80a8 8 0 0 0 8-8v-16h184z"/><path d="m88 392h-48a8 8 0 0 0 0 16h48a8 8 0 0 0 0-16z"/><path d="m120 392h-8a8 8 0 0 0 0 16h8a8 8 0 0 0 0-16z"/><path d="m440 352v-240a8 8 0 0 0 -8-8h-352a8 8 0 0 0 -8 8v240a8 8 0 0 0 8 8h352a8 8 0 0 0 8-8zm-16-8h-336v-224h336z"/><path d="m220.031 302.946a8 8 0 0 0 10.915-2.977l64-112a8 8 0 1 0 -13.892-7.938l-64 112a8 8 0 0 0 2.977 10.915z"/><path d="m307.2 310.4a8 8 0 0 0 11.2-1.6l48-64a8 8 0 0 0 0-9.6l-48-64a8 8 0 0 0 -12.8 9.6l44.4 59.2-44.4 59.2a8 8 0 0 0 1.6 11.2z"/><path d="m193.6 308.8a8 8 0 1 0 12.8-9.6l-44.4-59.2 44.4-59.2a8 8 0 1 0 -12.8-9.6l-48 64a8 8 0 0 0 0 9.6z"/></g></g></svg>